<svg width="27" height="28" viewBox="0 0 27 28" fill="none" xmlns="http://www.w3.org/2000/svg">
<path d="M25.2929 27.3931C25.6834 27.7837 26.3166 27.7837 26.7071 27.3931C27.0976 27.0026 27.0976 26.3695 26.7071 25.9789L25.2929 27.3931ZM26.7071 25.9789L19.3795 18.6513L17.9653 20.0656L25.2929 27.3931L26.7071 25.9789ZM20.6897 12.0309C20.6897 17.1919 16.5058 21.3757 11.3448 21.3757V23.3757C17.6104 23.3757 22.6897 18.2964 22.6897 12.0309H20.6897ZM11.3448 21.3757C6.18382 21.3757 2 17.1919 2 12.0309H0C0 18.2964 5.07925 23.3757 11.3448 23.3757V21.3757ZM2 12.0309C2 6.86986 6.18382 2.68604 11.3448 2.68604V0.686035C5.07925 0.686035 0 5.76529 0 12.0309H2ZM11.3448 2.68604C16.5058 2.68604 20.6897 6.86986 20.6897 12.0309H22.6897C22.6897 5.76529 17.6104 0.686035 11.3448 0.686035V2.68604Z" fill="white"/>
</svg>
