<svg width="25" height="26" viewBox="0 0 25 26" fill="none" xmlns="http://www.w3.org/2000/svg">
<path d="M6.93734 24.1784L5.41884 25.686L0 20.4437L3.88234 16.6172C4.66858 15.8365 5.66071 15.2919 6.74471 15.046C7.82871 14.8 8.96061 14.8627 10.0103 15.2269L10.8634 15.5228H16.0972C16.3186 15.5227 16.5377 15.5667 16.7415 15.6523C16.9454 15.7379 17.1299 15.8633 17.284 16.0211C17.4381 16.1789 17.5587 16.3658 17.6386 16.5707C17.7186 16.7756 17.7562 16.9944 17.7493 17.2141C17.7242 17.6483 17.5311 18.0561 17.2103 18.3522C16.8895 18.6484 16.4658 18.81 16.0278 18.8034H12.888C12.7177 18.8034 12.5543 18.8706 12.4338 18.9902C12.3134 19.1098 12.2457 19.272 12.2457 19.4411C12.2457 19.6103 12.3134 19.7725 12.4338 19.8921C12.5543 20.0117 12.7177 20.0789 12.888 20.0789H16.0381C16.8065 20.0826 17.5469 19.7928 18.106 19.2695C18.6652 18.7462 19.0002 18.0295 19.0417 17.2677C19.0417 17.2549 19.0417 17.2422 19.0417 17.2269L21.9554 13.9692C22.2514 13.6282 22.6683 13.4135 23.1195 13.3698C23.5707 13.3261 24.0216 13.4567 24.3783 13.7345C24.5549 13.8797 24.7003 14.0584 24.8062 14.2603C24.912 14.4622 24.976 14.6831 24.9944 14.9099C25.0129 15.1367 24.9854 15.3649 24.9135 15.5811C24.8417 15.7972 24.727 15.9968 24.5762 16.1682L18.7591 22.8008C18.3751 23.2378 17.9012 23.5878 17.3693 23.8272C16.8373 24.0666 16.2599 24.1898 15.6758 24.1886L6.93734 24.1784ZM18.9492 9.75746C18.9492 9.43609 18.8206 9.12788 18.5918 8.90064C18.3629 8.67339 18.0525 8.54573 17.7288 8.54573H15.9302V6.76001C15.9158 6.44859 15.7811 6.15467 15.554 5.93934C15.3269 5.72402 15.025 5.60386 14.711 5.60386C14.397 5.60386 14.0951 5.72402 13.8681 5.93934C13.641 6.15467 13.5063 6.44859 13.4918 6.76001V8.54573H11.6933C11.5285 8.53821 11.3638 8.56396 11.2093 8.6214C11.0548 8.67884 10.9136 8.76679 10.7943 8.87993C10.675 8.99307 10.5801 9.12906 10.5152 9.27966C10.4503 9.43027 10.4168 9.59238 10.4168 9.75619C10.4168 9.92 10.4503 10.0821 10.5152 10.2327C10.5801 10.3833 10.675 10.5193 10.7943 10.6324C10.9136 10.7456 11.0548 10.8335 11.2093 10.891C11.3638 10.9484 11.5285 10.9742 11.6933 10.9666H13.4918V12.7524C13.5063 13.0638 13.641 13.3577 13.8681 13.573C14.0951 13.7884 14.397 13.9085 14.711 13.9085C15.025 13.9085 15.3269 13.7884 15.554 13.573C15.7811 13.3577 15.9158 13.0638 15.9302 12.7524V10.9666H17.7288C18.052 10.9666 18.362 10.8393 18.5909 10.6126C18.8197 10.3859 18.9485 10.0784 18.9492 9.75746ZM7.24824 3.04318V4.3595H5.925C5.6865 4.3595 5.45776 4.45357 5.28911 4.62102C5.12047 4.78846 5.02572 5.01556 5.02572 5.25236C5.02572 5.48916 5.12047 5.71626 5.28911 5.88371C5.45776 6.05115 5.6865 6.14522 5.925 6.14522H7.25081V7.46154C7.25081 7.69835 7.34555 7.92545 7.5142 8.09289C7.68285 8.26033 7.91159 8.3544 8.15009 8.3544C8.3886 8.3544 8.61733 8.26033 8.78598 8.09289C8.95463 7.92545 9.04938 7.69835 9.04938 7.46154V6.14012H10.3675C10.606 6.14012 10.8347 6.04605 11.0034 5.8786C11.172 5.71116 11.2668 5.48406 11.2668 5.24726C11.2668 5.01046 11.172 4.78336 11.0034 4.61591C10.8347 4.44847 10.606 4.3544 10.3675 4.3544H9.04167V3.04318C9.04167 2.80638 8.94692 2.57928 8.77828 2.41183C8.60963 2.24439 8.38089 2.15032 8.14238 2.15032C7.90388 2.15032 7.67514 2.24439 7.50649 2.41183C7.33785 2.57928 7.2431 2.80638 7.2431 3.04318H7.24824ZM18.5921 0.686035C18.3876 0.686035 18.1916 0.766665 18.047 0.910188C17.9025 1.05371 17.8213 1.24837 17.8213 1.45134V2.58399H16.6805C16.476 2.58399 16.28 2.66462 16.1354 2.80815C15.9909 2.95167 15.9096 3.14633 15.9096 3.3493C15.9096 3.55227 15.9909 3.74693 16.1354 3.89045C16.28 4.03398 16.476 4.11461 16.6805 4.11461H17.8213V5.24726C17.8213 5.45023 17.9025 5.64489 18.047 5.78841C18.1916 5.93194 18.3876 6.01257 18.5921 6.01257C18.7965 6.01257 18.9926 5.93194 19.1371 5.78841C19.2817 5.64489 19.3629 5.45023 19.3629 5.24726V4.11461H20.5037C20.6049 4.11461 20.7052 4.09481 20.7987 4.05635C20.8922 4.01789 20.9772 3.96152 21.0488 3.89045C21.1203 3.81939 21.1771 3.73502 21.2158 3.64217C21.2546 3.54932 21.2745 3.4498 21.2745 3.3493C21.2745 3.2488 21.2546 3.14928 21.2158 3.05643C21.1771 2.96358 21.1203 2.87921 21.0488 2.80815C20.9772 2.73708 20.8922 2.68071 20.7987 2.64225C20.7052 2.60379 20.6049 2.58399 20.5037 2.58399H19.3629V1.45134C19.3629 1.24837 19.2817 1.05371 19.1371 0.910188C18.9926 0.766665 18.7965 0.686035 18.5921 0.686035Z" fill="white"/>
</svg>
