<svg width="21" height="26" viewBox="0 0 21 26" fill="none" xmlns="http://www.w3.org/2000/svg">
<path d="M16.4786 25.686V5.67998H0V25.686H3.8383V24.4991C3.8383 23.0068 5.00866 21.7903 6.4259 21.7903H10.0524C11.4715 21.7903 12.6499 23.0068 12.6499 24.4991V25.686H16.4786ZM4.55 18.5338C4.55 18.64 4.53091 18.7504 4.49243 18.8484C4.45396 18.9465 4.40009 19.037 4.32898 19.1124C4.25787 19.1874 4.17199 19.2442 4.07871 19.2847C3.98575 19.3253 3.8814 19.3455 3.78043 19.3455H1.9624C1.86174 19.3455 1.75739 19.3253 1.66412 19.2847C1.57115 19.2442 1.48527 19.1874 1.41416 19.1124C1.34274 19.0374 1.28918 18.9468 1.2507 18.8484C1.21222 18.7504 1.19283 18.6403 1.19283 18.5338V16.6366C1.19283 16.5305 1.21192 16.4204 1.2507 16.3221C1.28918 16.224 1.34305 16.1334 1.41416 16.0581C1.48527 15.9831 1.57115 15.9263 1.66412 15.8857C1.75739 15.8452 1.86174 15.8247 1.9624 15.8247H3.78043C3.88109 15.8247 3.98544 15.8448 4.07871 15.8857C4.17168 15.9263 4.25756 15.9831 4.32898 16.0581C4.40009 16.1334 4.45396 16.2237 4.49243 16.3221C4.53091 16.4201 4.55 16.5302 4.55 16.6366V18.5338ZM4.55 12.9234C4.55 13.0295 4.53091 13.1396 4.49243 13.238C4.45396 13.336 4.40009 13.4266 4.32898 13.5016C4.25787 13.5769 4.17199 13.6334 4.07871 13.674C3.98575 13.7145 3.8814 13.735 3.78043 13.735H1.9624C1.86174 13.735 1.75739 13.7149 1.66412 13.674C1.57115 13.6334 1.48527 13.5766 1.41416 13.5016C1.34274 13.4266 1.28918 13.336 1.2507 13.238C1.21222 13.1399 1.19283 13.0295 1.19283 12.9234V11.0161C1.19283 10.91 1.21192 10.81 1.2507 10.7116C1.28918 10.6136 1.34305 10.523 1.41416 10.4477C1.48527 10.3727 1.57115 10.3058 1.66412 10.2649C1.75739 10.2243 1.86174 10.2039 1.9624 10.2039H3.78043C3.88109 10.2039 3.98544 10.224 4.07871 10.2649C4.17168 10.3055 4.25756 10.3724 4.32898 10.4477C4.40009 10.5227 4.45396 10.6132 4.49243 10.7116C4.53091 10.8096 4.55 10.9096 4.55 11.0161V12.9234ZM6.56073 10.9249C6.56073 10.8187 6.57981 10.7087 6.6186 10.6103C6.65708 10.5123 6.71095 10.4217 6.78206 10.3464C6.85347 10.2714 6.93905 10.2146 7.03232 10.174C7.12528 10.1334 7.22994 10.1133 7.3306 10.1133H8.95624C9.0569 10.1133 9.16125 10.1334 9.25453 10.174C9.34749 10.2146 9.43337 10.2714 9.50479 10.3464C9.5759 10.4214 9.62977 10.5119 9.66825 10.6103C9.70672 10.7084 9.72612 10.8184 9.72612 10.9249V12.6293C9.72612 12.7354 9.70703 12.8354 9.66825 12.9335C9.62977 13.0315 9.5759 13.1221 9.50479 13.1974C9.43368 13.2724 9.3478 13.3393 9.25453 13.3798C9.16156 13.4204 9.0569 13.4409 8.95624 13.4409H7.3306C7.22994 13.4409 7.12528 13.4207 7.03232 13.3798C6.93935 13.3393 6.85347 13.2724 6.78206 13.1974C6.71095 13.1224 6.65708 13.0318 6.6186 12.9335C6.58012 12.8354 6.56073 12.7354 6.56073 12.6293V10.9249ZM9.77352 18.2904C9.77352 18.3965 9.75444 18.4965 9.71565 18.5949C9.67717 18.6929 9.6233 18.7835 9.55219 18.8585C9.48109 18.9338 9.3952 19.0004 9.30224 19.0413C9.20897 19.0818 9.10461 19.102 9.00395 19.102H7.32999C7.22933 19.102 7.12467 19.0818 7.0317 19.0413C6.93874 19.0007 6.85285 18.9338 6.78144 18.8585C6.71033 18.7835 6.65646 18.6929 6.61798 18.5949C6.5795 18.4968 6.56011 18.3969 6.56011 18.2904V16.5354C6.56011 16.4292 6.5792 16.3191 6.61798 16.2208C6.65646 16.1227 6.71033 16.0322 6.78144 15.9572C6.85285 15.8822 6.93843 15.8254 7.0317 15.7848C7.12467 15.7442 7.22933 15.7238 7.32999 15.7238H9.00395C9.10461 15.7238 9.20897 15.7439 9.30224 15.7848C9.3952 15.8254 9.48109 15.8822 9.55219 15.9572C9.62361 16.0322 9.67717 16.1227 9.71565 16.2208C9.75413 16.3191 9.77352 16.4292 9.77352 16.5354V18.2904ZM11.9283 11.0161C11.9283 10.91 11.9474 10.81 11.9862 10.7116C12.0247 10.6136 12.0785 10.523 12.1496 10.4477C12.2208 10.3727 12.3066 10.3058 12.3996 10.2649C12.4929 10.2243 12.5972 10.2039 12.6979 10.2039H14.5159C14.6166 10.2039 14.7209 10.224 14.8142 10.2649C14.9072 10.3055 14.993 10.3724 15.0645 10.4477C15.1356 10.5227 15.1894 10.6132 15.2279 10.7116C15.2664 10.8096 15.2855 10.9096 15.2855 11.0161V12.9234C15.2855 13.0295 15.2664 13.1396 15.2279 13.238C15.1894 13.336 15.1356 13.4266 15.0645 13.5016C14.9934 13.5769 14.9075 13.6334 14.8142 13.674C14.7212 13.7145 14.6166 13.735 14.5159 13.735H12.6979C12.5972 13.735 12.4929 13.7149 12.3996 13.674C12.3066 13.6334 12.2208 13.5766 12.1496 13.5016C12.0782 13.4266 12.0247 13.336 11.9862 13.238C11.9477 13.1399 11.9283 13.0295 11.9283 12.9234V11.0161ZM12.3999 19.2844C12.3069 19.2438 12.2211 19.187 12.15 19.112C12.0785 19.037 12.025 18.9465 11.9865 18.8481C11.948 18.7501 11.9286 18.64 11.9286 18.5335V16.6366C11.9286 16.5305 11.9477 16.4204 11.9865 16.3221C12.025 16.224 12.0788 16.1334 12.15 16.0581C12.2211 15.9831 12.3069 15.9263 12.3999 15.8857C12.4932 15.8452 12.5975 15.8247 12.6982 15.8247H14.5162C14.6169 15.8247 14.7212 15.8448 14.8145 15.8857C14.9075 15.9263 14.9934 15.9831 15.0648 16.0581C15.1359 16.1334 15.1897 16.2237 15.2282 16.3221C15.2667 16.4201 15.2858 16.5302 15.2858 16.6366V18.5338C15.2858 18.64 15.2667 18.7504 15.2282 18.8484C15.1897 18.9465 15.1359 19.037 15.0648 19.1124C14.9937 19.1874 14.9078 19.2442 14.8145 19.2847C14.7215 19.3253 14.6169 19.3455 14.5162 19.3455H12.6979C12.5972 19.3455 12.4929 19.325 12.3999 19.2844Z" fill="white"/>
<path d="M19.9528 0.686035H4.08148L1.02967 4.05582H16.8902L19.9528 0.686035Z" fill="white"/>
<path d="M18.0172 24.4706L21 21.1768V1.87974L18.0172 5.16187V24.4706Z" fill="white"/>
<path d="M6.42435 23.41C5.84071 23.41 5.37466 23.9025 5.37466 24.5008V25.6834H11.1064V24.5008C11.1064 23.9025 10.6416 23.41 10.0536 23.41H6.42435Z" fill="white"/>
</svg>
